<svg width="160" height="160" viewBox="0 0 160 160" fill="none" xmlns="http://www.w3.org/2000/svg">
  <defs>
    <linearGradient id="gradExplode" x1="20" y1="10" x2="150" y2="130" gradientUnits="userSpaceOnUse">
      <stop stop-color="#7EE0FF" />
      <stop offset="0.5" stop-color="#6D8CFF" />
      <stop offset="1" stop-color="#9B6BFF" />
    </linearGradient>
    <radialGradient id="glowExplore" cx="0" cy="0" r="1" gradientUnits="userSpaceOnUse" gradientTransform="translate(80 80) rotate(90) scale(80)">
      <stop stop-color="#C5E5FF" stop-opacity="0.55" />
      <stop offset="1" stop-color="#0B1020" stop-opacity="0" />
    </radialGradient>
  </defs>
  <rect x="8" y="8" width="144" height="144" rx="24" fill="#0E1527" />
  <rect x="8" y="8" width="144" height="144" rx="24" fill="url(#glowExplore)" />
  <circle cx="80" cy="76" r="42" fill="#0C1222" stroke="url(#gradExplode)" stroke-width="6" />
  <path d="M80 36L88 58.5H111L92.5 72L101 95L80 80.5L59 95L67.5 72L49 58.5H72L80 36Z" fill="url(#gradExplode)" stroke="#E8F1FF" stroke-width="2" stroke-linejoin="round" />
  <path d="M40 122C45 110.5 57.5 102.5 80 102.5C102.5 102.5 115 110.5 120 122" stroke="#7EE0FF" stroke-width="6" stroke-linecap="round" />
  <circle cx="52" cy="122" r="6" fill="#7EE0FF" />
  <circle cx="108" cy="122" r="6" fill="#9B6BFF" />
</svg>
